<svg width="24" height="24" viewBox="0 0 24 24" fill="none" xmlns="http://www.w3.org/2000/svg">
<path d="M12 14.4931C10.6193 14.4931 9.5 15.6124 9.5 16.9931V21.9931H14.5V16.9931C14.5 15.6124 13.3807 14.4931 12 14.4931Z" fill="#374957"/>
<path d="M16.1667 16.9875V21.9875H19.5C20.8807 21.9875 22 20.8683 22 19.4875V11.8867C22.0002 11.4538 21.832 11.0378 21.5308 10.7267L14.4492 3.07087C13.1996 1.71891 11.0907 1.63591 9.73879 2.88544C9.67457 2.94481 9.6127 3.00665 9.55336 3.07087L2.48418 10.7242C2.17395 11.0366 1.99988 11.459 2 11.8992V19.4875C2 20.8683 3.1193 21.9875 4.5 21.9875H7.83332V16.9875C7.84891 14.7152 9.68355 12.8596 11.8987 12.8061C14.1879 12.7509 16.1492 14.6381 16.1667 16.9875Z" fill="#1B75BC"/>
<path d="M12 14.4931C10.6193 14.4931 9.5 15.6124 9.5 16.9931V21.9931H14.5V16.9931C14.5 15.6124 13.3807 14.4931 12 14.4931Z" fill="#165E96"/>
</svg>
